<?xml version="1.0" encoding="UTF-8"?>
<!DOCTYPE svg PUBLIC "-//W3C//DTD SVG 1.1//EN" "http://www.w3.org/Graphics/SVG/1.1/DTD/svg11.dtd">
<svg xmlns="http://www.w3.org/2000/svg" version="1.1" width="114px" height="109px" style="shape-rendering:geometricPrecision; text-rendering:geometricPrecision; image-rendering:optimizeQuality; fill-rule:evenodd; clip-rule:evenodd" xmlns:xlink="http://www.w3.org/1999/xlink">
<g><path style="opacity:1" fill="#ea611d" d="M 25.5,-0.5 C 26.8333,-0.5 28.1667,-0.5 29.5,-0.5C 34.6991,0.862914 37.5324,4.19625 38,9.5C 36.786,7.95118 35.286,6.78451 33.5,6C 29.8333,5.33333 26.1667,5.33333 22.5,6C 18.1041,7.90184 14.1041,10.4018 10.5,13.5C 12.9715,6.02556 17.9715,1.3589 25.5,-0.5 Z"/></g>
<g><path style="opacity:0.839" fill="#ef946f" d="M 10.5,13.5 C 10.631,14.2389 10.4643,14.9056 10,15.5C 9.30831,14.5632 9.47498,13.8966 10.5,13.5 Z"/></g>
<g><path style="opacity:1" fill="#0d8973" d="M 32.5,55.5 C 33.4171,57.6618 33.4171,59.9952 32.5,62.5C 29.0084,72.4933 22.1751,78.8267 12,81.5C 8.15631,81.3316 5.15631,79.6649 3,76.5C 1.51368,73.1498 0.347016,69.8165 -0.5,66.5C -0.5,62.8333 -0.5,59.1667 -0.5,55.5C 1.202,41.2449 6.53534,28.4116 15.5,17C 17.3939,15.5962 19.3939,14.4295 21.5,13.5C 23.7443,14.5898 25.5777,16.2564 27,18.5C 28.0495,17.4829 29.2161,17.3162 30.5,18C 32.9918,20.8118 34.4918,23.9785 35,27.5C 31.6112,22.2147 27.2779,21.2147 22,24.5C 14.6881,35.3796 12.6881,47.0463 16,59.5C 20.4092,62.9708 24.9092,62.8041 29.5,59C 30.7101,57.9609 31.7101,56.7942 32.5,55.5 Z"/></g>
<g><path style="opacity:0.42" fill="#85c3c2" d="M 35.5,28.5 C 36.8333,29.1667 36.8333,29.1667 35.5,28.5 Z"/></g>
<g><path style="opacity:1" fill="#2aaabc" d="M 52.5,35.5 C 53.9778,35.238 55.3112,35.5713 56.5,36.5C 53.3438,42.0284 52.0104,41.6951 52.5,35.5 Z"/></g>
<g><path style="opacity:1" fill="#22aabd" d="M 56.5,38.5 C 59.9496,37.7564 61.6162,39.0897 61.5,42.5C 59.0108,42.7022 56.6775,42.2022 54.5,41C 55.3805,40.2917 56.0472,39.4584 56.5,38.5 Z"/></g>
<g><path style="opacity:1" fill="#4fb580" d="M 90.5,41.5 C 91.8333,47.5 91.8333,53.5 90.5,59.5C 89.609,60.1098 88.609,60.4431 87.5,60.5C 87.5,54.5 87.5,48.5 87.5,42.5C 88.391,41.8902 89.391,41.5569 90.5,41.5 Z"/></g>
<g><path style="opacity:1" fill="#6bb96c" d="M 90.5,41.5 C 92.1667,41.5 93.8333,41.5 95.5,41.5C 95.5,47.8333 95.5,54.1667 95.5,60.5C 93.9582,59.6993 92.2915,59.366 90.5,59.5C 91.8333,53.5 91.8333,47.5 90.5,41.5 Z"/></g>
<g><path style="opacity:1" fill="#7cbc5c" d="M 95.5,41.5 C 97.099,41.2322 98.4324,41.5655 99.5,42.5C 100.293,53.4285 100.293,64.4285 99.5,75.5C 96.8205,75.3274 94.4872,74.3274 92.5,72.5C 98.9015,69.728 99.9015,65.728 95.5,60.5C 95.5,54.1667 95.5,47.8333 95.5,41.5 Z"/></g>
<g><path style="opacity:1" fill="#87bf4f" d="M 99.5,42.5 C 100.492,42.3284 101.158,42.6618 101.5,43.5C 102.822,54.0001 102.822,64.5001 101.5,75C 102.094,75.4643 102.761,75.631 103.5,75.5C 102.167,76.8333 100.833,76.8333 99.5,75.5C 100.293,64.4285 100.293,53.4285 99.5,42.5 Z"/></g>
<g><path style="opacity:1" fill="#169ea3" d="M 48.5,63.5 C 49.209,64.404 50.209,64.7373 51.5,64.5C 51.5,68.1667 51.5,71.8333 51.5,75.5C 48.8127,75.6641 46.146,75.4974 43.5,75C 42.5842,74.7216 41.9175,74.2216 41.5,73.5C 40.1667,63.8333 40.1667,54.1667 41.5,44.5C 43.4621,42.9827 45.7954,42.3161 48.5,42.5C 51.388,42.3853 54.0547,43.0519 56.5,44.5C 49.6207,46.0541 44.954,50.0541 42.5,56.5C 43.1123,60.1067 45.1123,62.44 48.5,63.5 Z"/></g>
<g><path style="opacity:1" fill="#34b28b" d="M 87.5,42.5 C 87.5,48.5 87.5,54.5 87.5,60.5C 86.7095,61.4013 85.7095,62.0679 84.5,62.5C 83.5111,57.0247 83.1778,51.358 83.5,45.5C 84.4363,44.0256 85.7697,43.0256 87.5,42.5 Z"/></g>
<g><path style="opacity:1" fill="#1eaf95" d="M 83.5,45.5 C 83.1778,51.358 83.5111,57.0247 84.5,62.5C 83.5,64.1667 82.1667,65.5 80.5,66.5C 80.4244,60.8085 80.4244,54.8085 80.5,48.5C 81.1667,47.1667 82.1667,46.1667 83.5,45.5 Z"/></g>
<g><path style="opacity:1" fill="#91c141" d="M 101.5,43.5 C 103.674,43.7497 105.341,44.7497 106.5,46.5C 105.167,55.8333 105.167,65.1667 106.5,74.5C 105.791,75.404 104.791,75.7373 103.5,75.5C 102.761,75.631 102.094,75.4643 101.5,75C 102.822,64.5001 102.822,54.0001 101.5,43.5 Z"/></g>
<g><path style="opacity:1" fill="#0f948e" d="M 41.5,44.5 C 40.1667,54.1667 40.1667,63.8333 41.5,73.5C 36.8457,71.1936 33.8457,67.527 32.5,62.5C 33.4171,59.9952 33.4171,57.6618 32.5,55.5C 33.8574,50.432 36.8574,46.7654 41.5,44.5 Z"/></g>
<g><path style="opacity:1" fill="#99c432" d="M 106.5,46.5 C 107.458,46.9528 108.292,47.6195 109,48.5C 110.822,52.1574 112.322,55.8241 113.5,59.5C 113.5,61.5 113.5,63.5 113.5,65.5C 112.374,69.4076 110.041,72.4076 106.5,74.5C 105.167,65.1667 105.167,55.8333 106.5,46.5 Z"/></g>
<g><path style="opacity:1" fill="#15a7ba" d="M 73.5,64.5 C 72.9455,68.0122 73.6122,71.0122 75.5,73.5C 74.8783,74.6266 74.045,75.6266 73,76.5C 73.8263,86.3732 71.3263,95.2065 65.5,103C 62.0095,105.412 58.3429,107.245 54.5,108.5C 53.5,108.5 52.5,108.5 51.5,108.5C 51.5,107.833 51.1667,107.5 50.5,107.5C 50.6938,98.8529 50.6938,90.1863 50.5,81.5C 53.5978,79.1084 56.9311,76.9417 60.5,75C 62.3192,68.9174 61.3192,68.2507 57.5,73C 55.5932,74.122 53.5932,74.9553 51.5,75.5C 51.5,71.8333 51.5,68.1667 51.5,64.5C 50.209,64.7373 49.209,64.404 48.5,63.5C 53.6321,63.5231 57.1321,61.1897 59,56.5C 59.3522,52.8995 59.5188,49.5661 59.5,46.5C 61.8579,48.0243 63.6912,50.0243 65,52.5C 66.5182,57.8114 67.8516,63.1448 69,68.5C 69.3333,68.8333 69.6667,69.1667 70,69.5C 71.1889,67.7669 72.3556,66.1002 73.5,64.5 Z M 61.5,81.5 C 63.0257,82.1047 64.0257,83.2714 64.5,85C 64.1414,89.3502 62.1414,92.6835 58.5,95C 52.5493,96.1028 51.0493,93.9361 54,88.5C 56.3959,85.9334 58.8959,83.6 61.5,81.5 Z"/></g>
<g><path style="opacity:1" fill="#16ada5" d="M 80.5,48.5 C 80.4244,54.8085 80.4244,60.8085 80.5,66.5C 79.1891,69.1354 77.5224,71.4687 75.5,73.5C 73.6122,71.0122 72.9455,68.0122 73.5,64.5C 74.302,58.4036 76.6353,53.0703 80.5,48.5 Z"/></g>
<g><path style="opacity:1" fill="#0f9fa7" d="M 50.5,81.5 C 50.6938,90.1863 50.6938,98.8529 50.5,107.5C 44.9322,105.932 41.9322,102.266 41.5,96.5C 42.2059,90.0829 45.2059,85.0829 50.5,81.5 Z"/></g>
<g><path style="opacity:1" fill="#2b9d9b" d="M 39.5,89.5 C 40.3764,89.3691 41.0431,89.7025 41.5,90.5C 40.9132,93.4057 39.2465,95.0724 36.5,95.5C 36.0283,92.6421 37.0283,90.6421 39.5,89.5 Z"/></g>
</svg>
