<svg version="1.1" id="Layer_1" xmlns="http://www.w3.org/2000/svg" xmlns:xlink="http://www.w3.org/1999/xlink" x="0px" y="0px"
	 width="100%" viewBox="0 0 1900 461" enable-background="new 0 0 1900 461" xml:space="preserve">
<path fill="#fff" opacity="1.000000" stroke="none" 
	d="
M557.000000,462.000000 
	C509.971954,462.000000 462.943939,462.000000 415.794586,461.645325 
	C414.156769,460.860382 412.653778,460.127075 411.121155,460.058838 
	C407.129242,459.881134 403.096375,460.300323 399.129791,459.936554 
	C386.255493,458.755859 373.410187,457.263062 360.540802,456.024475 
	C352.203918,455.222076 343.795105,455.019501 335.505890,453.900787 
	C320.352509,451.855682 305.262299,449.340820 290.148682,447.002899 
	C275.039368,444.665619 259.846588,442.754059 244.847824,439.844330 
	C224.814667,435.958008 204.764236,431.939575 185.025116,426.808716 
	C152.694962,418.405182 120.478264,409.500397 88.467155,399.956970 
	C67.124466,393.594086 46.211628,385.784943 25.127502,378.561523 
	C17.054787,375.795868 9.040763,372.858917 0.999997,370.000000 
	C1.000000,247.019272 1.000000,124.038536 1.000000,1.028900 
	C634.214844,1.028900 1267.429688,1.028900 1901.000000,1.028900 
	C1901.000000,129.694489 1901.000000,258.389282 1900.608276,387.541748 
	C1899.882568,387.992432 1899.517822,388.072113 1899.218994,387.966125 
	C1869.266968,377.345673 1839.552002,365.985229 1809.299194,356.306030 
	C1784.858154,348.486237 1759.855957,342.343475 1734.937256,336.119934 
	C1717.814697,331.843536 1700.447754,328.502167 1683.114990,325.128021 
	C1672.419067,323.045837 1661.605957,321.511902 1650.802246,320.051208 
	C1639.308838,318.497284 1627.767090,317.297150 1616.241699,315.984711 
	C1601.457886,314.301270 1586.692749,312.393799 1571.875366,311.083496 
	C1559.728271,310.009399 1547.523804,309.408173 1535.331543,309.065369 
	C1519.279663,308.613983 1503.212524,308.358734 1487.156494,308.511658 
	C1473.769653,308.639160 1460.388550,309.447479 1447.007080,310.006805 
	C1431.823730,310.641479 1416.641357,311.303986 1401.461792,312.020782 
	C1396.863770,312.237915 1392.262939,312.550446 1387.686157,313.035065 
	C1372.558960,314.636597 1357.438354,316.300934 1342.322998,318.010895 
	C1330.966675,319.295593 1319.582886,320.420563 1308.282227,322.095184 
	C1292.044434,324.501404 1275.859009,327.272247 1259.673340,330.017395 
	C1242.374878,332.951294 1225.035034,335.700867 1207.835083,339.140198 
	C1186.409302,343.424561 1165.102173,348.304413 1143.754761,352.977509 
	C1115.921021,359.070557 1088.066040,365.072845 1060.280762,371.380859 
	C1039.790527,376.032806 1019.412720,381.177460 998.956787,385.983429 
	C974.089966,391.825684 949.195801,397.551910 924.309448,403.310760 
	C910.280090,406.557190 896.273621,409.911835 882.200867,412.959381 
	C863.835510,416.936554 845.440369,420.786987 827.009827,424.449158 
	C811.740295,427.483215 796.402527,430.174255 781.092041,433.000946 
	C768.957520,435.241241 756.837280,437.565857 744.676025,439.651306 
	C733.463623,441.574066 722.217834,443.313354 710.962891,444.971832 
	C702.891174,446.161224 694.775818,447.051941 686.687866,448.134827 
	C677.317078,449.389496 667.973755,450.872131 658.583923,451.956085 
	C648.166748,453.158539 637.713989,454.060089 627.270386,455.024841 
	C612.571655,456.382629 597.876831,457.802582 583.161194,458.950012 
	C575.255371,459.566467 567.306152,459.613281 559.386658,460.086487 
	C558.555969,460.136139 557.793884,461.334564 557.000000,462.000000 
z"/>
</svg>