<?xml version="1.0" standalone="no"?>
<!DOCTYPE svg PUBLIC "-//W3C//DTD SVG 20010904//EN"
 "http://www.w3.org/TR/2001/REC-SVG-20010904/DTD/svg10.dtd">
<svg version="1.0" xmlns="http://www.w3.org/2000/svg"
 width="1080.000000pt" height="255.000000pt" viewBox="0 0 1080.000000 255.000000"
 preserveAspectRatio="xMidYMid meet">

<g transform="translate(0.000000,255.000000) scale(0.100000,-0.100000)"
fill="#fff" stroke="none">
<path d="M2 1433 l3 -1118 50 -7 c28 -4 187 -23 355 -43 877 -101 1828 -174
2800 -215 865 -36 1247 -42 2405 -37 1125 5 1333 10 2065 42 645 29 1027 53
1610 100 374 30 1373 139 1483 161 l27 6 0 1114 0 1114 -5400 0 -5400 0 2
-1117z"/>
</g>
</svg>
