<svg id="icon-minimize" xmlns="http://www.w3.org/2000/svg" viewBox="0 0 16 16">
	<path d="M 15.105046,1.4499871e-6 A 0.88813074,0.88822054 0 0 0 14.473641,0.26195714 L 10.664392,4.0819994 v -1.412132 a 0.88813074,0.88822054 0 0 0 -1.7762612,0 v 3.5528822 a 0.88813074,0.88822054 0 0 0 0.8881307,0.8882206 h 3.5525235 a 0.88813075,0.88822055 0 0 0 0,-1.7764411 h -1.41199 l 3.819657,-3.8096334 a 0.88813074,0.88822054 0 0 0 0,-1.26293856 A 0.88813074,0.88822054 0 0 0 15.105046,1.4499871e-6 Z M 2.6712159,8.887411 a 0.8881312,0.888221 0 0 0 0,1.776442 h 1.4119892 l -3.81965609,3.809632 a 0.88813074,0.88822054 0 0 0 0,1.26294 0.88813074,0.88822054 0 0 0 1.26281089,0 l 3.8092483,-3.820043 v 1.412132 a 0.88813074,0.88822054 0 0 0 1.7762614,0 V 9.7756316 A 0.88813074,0.88822054 0 0 0 6.2237389,8.887411 Z"/>
</svg>
  